<svg width="54" height="54" viewBox="0 0 54 54" fill="none" xmlns="http://www.w3.org/2000/svg">
<path fill-rule="evenodd" clip-rule="evenodd" d="M47 11.3665C47.4753 11.4109 47.917 11.6312 48.2384 11.9842C48.5599 12.3372 48.7381 12.7974 48.7381 13.2748C48.7381 13.7522 48.5599 14.2125 48.2384 14.5654C47.917 14.9184 47.4753 15.1387 47 15.1831C46.7344 15.208 46.4665 15.1771 46.2135 15.0925C45.9606 15.0079 45.728 14.8714 45.5308 14.6918C45.3336 14.5122 45.1761 14.2934 45.0683 14.0494C44.9605 13.8054 44.9048 13.5416 44.9048 13.2748C44.9048 13.0081 44.9605 12.7442 45.0683 12.5002C45.1761 12.2562 45.3336 12.0374 45.5308 11.8578C45.728 11.6782 45.9606 11.5417 46.2135 11.4571C46.4665 11.3725 46.7344 11.3416 47 11.3665ZM5.61664 42.9665C5.23756 42.9665 4.86699 42.8541 4.5518 42.6435C4.2366 42.4329 3.99094 42.1335 3.84587 41.7833C3.7008 41.4331 3.66285 41.0477 3.7368 40.6759C3.81076 40.3041 3.9933 39.9626 4.26135 39.6945C4.5294 39.4265 4.87092 39.2439 5.24272 39.17C5.61451 39.096 5.99989 39.134 6.35012 39.279C6.70034 39.4241 6.99968 39.6698 7.21029 39.985C7.4209 40.3002 7.53331 40.6707 7.53331 41.0498C7.53331 41.5581 7.33137 42.0457 6.97193 42.4051C6.61248 42.7645 6.12497 42.9665 5.61664 42.9665ZM36.15 16.9998C34.1675 15.1514 31.6624 13.9608 28.9773 13.5909C26.2922 13.2209 23.5584 13.6897 21.15 14.9331C16.15 17.6165 13.25 24.2165 13.9 32.2831C11.0693 30.9106 8.51116 29.0358 6.34997 26.7498C0.699974 20.7331 -1.16669 13.6665 1.58331 9.24981C4.33331 4.83314 11.7 2.78314 17.2833 8.79981C19.1 0.816477 26.4666 -1.20019 31.0833 1.34981C35.3333 3.66648 37.3 9.78314 36.15 16.9998Z" fill="#C3D72F"/>
<path fill-rule="evenodd" clip-rule="evenodd" d="M47.7165 43.6664C43.6665 48.1831 35.6665 51.6664 29.1999 53.6664C25.1665 49.2831 20.6165 43.3498 18.8165 37.9164C16.2165 30.9331 17.5332 20.7331 22.8999 18.2664C24.971 17.2223 27.3562 16.9852 29.5923 17.6012C31.8284 18.2172 33.7557 19.6423 34.9999 21.5998C35.8139 22.8526 36.3797 24.2502 36.6665 25.7164C36.9332 25.4331 37.2332 25.1831 37.4499 24.9331C42.8999 19.9331 49.7499 21.8831 52.4499 26.1831C55.1499 30.4831 53.2832 37.6331 47.7165 43.6664ZM44.2499 2.13311C44.249 1.9789 44.2947 1.82801 44.3809 1.70016C44.4671 1.57231 44.5899 1.47343 44.7332 1.41644C44.8759 1.35234 45.0354 1.33555 45.1883 1.36854C45.3412 1.40152 45.4796 1.48255 45.5832 1.59978L46.3332 2.43311C46.4076 2.51317 46.498 2.57678 46.5984 2.61983C46.6989 2.66289 46.8073 2.68444 46.9165 2.68311H48.0332C48.1897 2.67402 48.3451 2.7142 48.4776 2.79799C48.6101 2.88178 48.713 3.00498 48.7718 3.15027C48.8307 3.29556 48.8425 3.45564 48.8057 3.60801C48.7689 3.76039 48.6852 3.89739 48.5665 3.99978L47.7499 4.74978C47.6672 4.82208 47.6018 4.91203 47.5585 5.013C47.5152 5.11396 47.4952 5.22336 47.4999 5.33311V6.44978C47.5034 6.60589 47.4591 6.75934 47.373 6.88961C47.2869 7.01988 47.1631 7.12076 47.0181 7.17875C46.8732 7.23675 46.7139 7.24909 46.5617 7.21412C46.4096 7.17916 46.2717 7.09856 46.1665 6.98311L45.4165 6.16644C45.3442 6.08374 45.2543 6.01834 45.1533 5.97507C45.0524 5.9318 44.943 5.91176 44.8332 5.91644H43.7165C43.56 5.91838 43.4065 5.87337 43.2758 5.78722C43.1451 5.70107 43.0432 5.57773 42.9832 5.43311C42.9236 5.28828 42.9109 5.12844 42.9468 4.976C42.9826 4.82356 43.0653 4.68618 43.1832 4.58311L43.9999 3.83311C44.0826 3.76081 44.148 3.67085 44.1913 3.56989C44.2345 3.46892 44.2546 3.35952 44.2499 3.24978V2.13311ZM13.0832 49.3664C13.028 49.5118 12.9299 49.6369 12.8019 49.7252C12.6739 49.8135 12.522 49.8608 12.3665 49.8608C12.2111 49.8608 12.0592 49.8135 11.9312 49.7252C11.8032 49.6369 11.7051 49.5118 11.6499 49.3664L11.2665 48.3164C11.1805 48.1138 11.0192 47.9525 10.8165 47.8664L9.76655 47.4831C9.6212 47.4279 9.49607 47.3298 9.40779 47.2018C9.3195 47.0738 9.27222 46.9219 9.27222 46.7664C9.27222 46.611 9.3195 46.4591 9.40779 46.3311C9.49607 46.2031 9.6212 46.105 9.76655 46.0498L10.8165 45.6664C10.92 45.629 11.0139 45.5693 11.0916 45.4915C11.1694 45.4138 11.2291 45.3199 11.2665 45.2164C11.3665 44.9664 11.4999 44.5831 11.6499 44.1831C11.7051 44.0378 11.8032 43.9126 11.9312 43.8244C12.0592 43.7361 12.2111 43.6888 12.3665 43.6888C12.522 43.6888 12.6739 43.7361 12.8019 43.8244C12.9299 43.9126 13.028 44.0378 13.0832 44.1831C13.2332 44.5831 13.3832 44.9664 13.4665 45.2164C13.504 45.3199 13.5637 45.4138 13.6415 45.4915C13.7192 45.5693 13.8131 45.629 13.9165 45.6664L14.9665 46.0498C15.1119 46.105 15.237 46.2031 15.3253 46.3311C15.4136 46.4591 15.4609 46.611 15.4609 46.7664C15.4609 46.9219 15.4136 47.0738 15.3253 47.2018C15.237 47.3298 15.1119 47.4279 14.9665 47.4831L13.9165 47.8664C13.7139 47.9525 13.5526 48.1138 13.4665 48.3164C13.3832 48.5831 13.2332 48.9664 13.0832 49.3664Z" fill="#2A2D32"/>
</svg>
