<svg width="21" height="20" viewBox="0 0 21 20" fill="none" xmlns="http://www.w3.org/2000/svg">
<path d="M16.2886 11.6282L18.2712 13.6108C18.6461 13.9856 18.6461 14.5933 18.2712 14.9682C16.2447 16.9947 13.0364 17.2227 10.7436 15.5031L10.61 15.4029C8.88049 14.1058 7.34415 12.5695 6.04705 10.84L5.9468 10.7063C4.22722 8.41355 4.45523 5.20525 6.48177 3.1787C6.85661 2.80387 7.46434 2.80387 7.83918 3.1787L9.82179 5.16131C10.2123 5.55184 10.2123 6.185 9.82179 6.57553L8.42404 7.97328C8.17235 8.22497 8.10995 8.60948 8.26914 8.92784C9.18935 10.7683 10.6817 12.2606 12.5221 13.1808C12.8405 13.34 13.225 13.2776 13.4767 13.0259L14.8744 11.6282C15.2649 11.2376 15.8981 11.2376 16.2886 11.6282Z" fill="#2A2D32"/>
</svg>
