<svg width="21" height="20" viewBox="0 0 21 20" fill="none" xmlns="http://www.w3.org/2000/svg">
<path d="M15.9832 3.33398H5.84854C4.70431 3.33398 3.83252 4.20578 3.83252 5.35001V15.4846C3.83252 16.6289 4.70431 17.5006 5.84854 17.5006H15.9832C17.1274 17.5006 17.9992 16.6289 17.9992 15.4846V5.35001C17.9992 4.20578 17.1274 3.33398 15.9832 3.33398ZM10.9159 14.6673C13.2588 14.6673 15.1659 12.8148 15.1659 10.5808C15.1659 10.1994 15.1114 9.76347 15.0024 9.43655H16.2011V15.2122C16.2011 15.4846 15.9832 15.7571 15.6562 15.7571H6.17547C5.90303 15.7571 5.6306 15.5391 5.6306 15.2122V9.38206H6.8838C6.77483 9.76347 6.72034 10.1449 6.72034 10.5263C6.66585 12.8148 8.5729 14.6673 10.9159 14.6673ZM10.9159 13.0327C9.39021 13.0327 8.19149 11.834 8.19149 10.3628C8.19149 8.89168 9.39021 7.69296 10.9159 7.69296C12.4415 7.69296 13.6402 8.89168 13.6402 10.3628C13.6402 11.8885 12.4415 13.0327 10.9159 13.0327ZM16.1466 7.20257C16.1466 7.5295 15.8742 7.80193 15.5473 7.80193H14.0216C13.6947 7.80193 13.4223 7.5295 13.4223 7.20257V5.73142C13.4223 5.4045 13.6947 5.13206 14.0216 5.13206H15.5473C15.8742 5.13206 16.1466 5.4045 16.1466 5.73142V7.20257Z" fill="white"/>
</svg>
