<svg width="21" height="20" viewBox="0 0 21 20" fill="none" xmlns="http://www.w3.org/2000/svg">
<path d="M17.8237 2.91667C15.9421 1.04167 13.4334 0 10.7853 0C5.2801 0 0.820174 4.44444 0.820174 9.93056C0.820174 11.6667 1.30798 13.4028 2.14422 14.8611L0.750488 20L6.04666 18.6111C7.51007 19.375 9.11286 19.7917 10.7853 19.7917C16.2906 19.7917 20.7505 15.3472 20.7505 9.86111C20.6808 7.29167 19.7052 4.79167 17.8237 2.91667ZM15.5937 13.4722C15.3846 14.0278 14.409 14.5833 13.9212 14.6528C13.5031 14.7222 12.9456 14.7222 12.3881 14.5833C12.0397 14.4444 11.5519 14.3056 10.9944 14.0278C8.48568 12.9861 6.88289 10.4861 6.74352 10.2778C6.60415 10.1389 5.69822 8.95833 5.69822 7.70833C5.69822 6.45833 6.3254 5.90278 6.53446 5.625C6.74352 5.34722 7.02226 5.34722 7.23132 5.34722C7.3707 5.34722 7.57975 5.34722 7.71913 5.34722C7.8585 5.34722 8.06756 5.27778 8.27662 5.76389C8.48568 6.25 8.97348 7.5 9.04317 7.56944C9.11286 7.70833 9.11286 7.84722 9.04317 7.98611C8.97348 8.125 8.9038 8.26389 8.76442 8.40278C8.62505 8.54167 8.48568 8.75 8.41599 8.81944C8.27662 8.95833 8.13725 9.09722 8.27662 9.30555C8.41599 9.58333 8.9038 10.3472 9.67035 11.0417C10.646 11.875 11.4125 12.1528 11.6913 12.2917C11.97 12.4306 12.1094 12.3611 12.2487 12.2222C12.3881 12.0833 12.8759 11.5278 13.0153 11.25C13.1547 10.9722 13.3637 11.0417 13.5728 11.1111C13.7818 11.1806 15.0362 11.8056 15.2453 11.9444C15.524 12.0833 15.6634 12.1528 15.7331 12.2222C15.8027 12.4306 15.8028 12.9167 15.5937 13.4722Z" fill="#2A2D32"/>
</svg>
