<svg width="21" height="20" viewBox="0 0 21 20" fill="none" xmlns="http://www.w3.org/2000/svg">
<path d="M2.05885 9.4784L5.8906 10.9072L7.38432 15.7131C7.44927 16.0378 7.83894 16.1028 8.09872 15.9079L10.2419 14.1544C10.4367 13.9596 10.7614 13.9596 11.0212 14.1544L14.853 16.947C15.1127 17.1419 15.5024 17.012 15.5674 16.6873L18.4249 3.04888C18.4899 2.72416 18.1651 2.39944 17.8404 2.52933L2.05885 8.63412C1.66918 8.76401 1.66918 9.34851 2.05885 9.4784ZM7.1895 10.1928L14.7231 5.58172C14.8529 5.51678 14.9828 5.71161 14.853 5.77656L8.68321 11.5566C8.48838 11.7515 8.29354 12.0112 8.29354 12.336L8.09872 13.8946C8.09872 14.0895 7.77399 14.1544 7.70904 13.8946L6.9297 11.0371C6.73487 10.7123 6.86477 10.3227 7.1895 10.1928Z" fill="#2A2D32"/>
</svg>
