<svg width="1920" height="112" viewBox="0 0 1920 112" fill="none" xmlns="http://www.w3.org/2000/svg">
<path d="M424.706 90L454.266 47.0566L426.801 7.1391H444.141L462.994 36.4663L482.662 7.1391H498.955L471.49 47.0566L500.933 90H483.244L462.529 58.3453L441.464 90H424.706Z" fill="#C3D72F"/>
<path d="M1070.71 90L1100.27 47.0566L1072.8 7.1391H1090.14L1108.99 36.4663L1128.66 7.1391H1144.95L1117.49 47.0566L1146.93 90H1129.24L1108.53 58.3453L1087.46 90H1070.71Z" fill="#C3D72F"/>
<path d="M-165.983 8.696V92H-191.489V30.107H-215.591V92H-241.214V8.696H-165.983ZM-112.071 6.473C-99.5907 6.473 -89.5287 10.529 -81.8847 18.641C-74.2407 26.675 -70.4187 37.244 -70.4187 50.348C-70.4187 63.374 -74.2797 73.904 -82.0017 81.938C-89.6457 89.972 -99.7467 93.989 -112.305 93.989C-125.097 93.989 -135.393 90.011 -143.193 82.055C-150.993 74.021 -154.893 63.413 -154.893 50.231C-154.893 37.049 -150.993 26.48 -143.193 18.524C-135.393 10.49 -125.019 6.473 -112.071 6.473ZM-112.422 26.948C-117.57 26.948 -121.626 28.976 -124.59 33.032C-127.476 37.088 -128.919 42.704 -128.919 49.88C-128.919 57.29 -127.476 63.062 -124.59 67.196C-121.704 71.252 -117.609 73.28 -112.305 73.28C-107.079 73.28 -103.101 71.252 -100.371 67.196C-97.6407 63.062 -96.2757 57.056 -96.2757 49.178C-96.2757 42.236 -97.7187 36.815 -100.605 32.915C-103.413 28.937 -107.352 26.948 -112.422 26.948ZM9.83144 8.696V28.937H-34.0436V39.35H5.73644V58.655H-34.0436V70.823H11.0014V92H-59.1986V8.696H9.83144ZM92.4453 65.675C92.4453 75.191 88.9353 82.289 81.9153 86.969C74.8953 91.571 66.0813 93.872 55.4733 93.872C43.8513 93.872 34.6863 91.22 27.9783 85.916C21.2703 80.534 17.8383 73.202 17.6823 63.92H43.3053C43.6953 70.94 47.5953 74.45 55.0053 74.45C58.9053 74.45 61.9083 73.592 64.0143 71.876C66.1983 70.082 67.2903 67.703 67.2903 64.739C67.2903 62.867 66.9003 61.346 66.1203 60.176C65.4183 59.006 64.3263 58.187 62.8443 57.719C61.4403 57.173 60.0753 56.822 58.7493 56.666C57.5013 56.51 55.9023 56.432 53.9523 56.432C53.3283 56.432 52.4313 56.471 51.2613 56.549C50.0913 56.549 49.1943 56.549 48.5703 56.549V40.637C49.1943 40.715 50.5593 40.754 52.6653 40.754C54.5373 40.754 55.7853 40.754 56.4093 40.754C57.1113 40.754 58.2813 40.637 59.9193 40.403C61.6353 40.091 62.8833 39.701 63.6633 39.233C64.4433 38.765 65.1843 38.024 65.8863 37.01C66.5883 35.918 66.9393 34.592 66.9393 33.032C66.9393 30.692 65.9253 28.82 63.8973 27.416C61.9473 26.012 59.2953 25.31 55.9413 25.31C52.5873 25.31 49.8183 26.051 47.6343 27.533C45.5283 29.015 44.4363 31.004 44.3583 33.5H20.3733C20.4513 24.998 23.7273 18.368 30.2013 13.61C36.6753 8.852 45.4113 6.473 56.4093 6.473C66.6273 6.473 74.7393 8.462 80.7453 12.44C86.8293 16.418 89.8713 22.19 89.8713 29.756C89.8713 33.344 88.7013 36.815 86.3613 40.169C84.0213 43.523 81.0963 45.746 77.5863 46.838C81.6423 47.774 85.1133 49.997 87.9993 53.507C90.9633 56.939 92.4453 60.995 92.4453 65.675ZM114.182 8.696H178.064V70.706H188.36V111.422H165.194V92H118.979V111.422H95.6957V70.706H104.237C107.435 64.7 109.892 56.822 111.608 47.072C113.324 37.322 114.182 27.026 114.182 16.184V8.696ZM153.026 70.706V29.639H137.231V36.659C137.231 41.495 136.412 47.54 134.774 54.794C133.136 61.97 131.42 67.274 129.626 70.706H153.026ZM276.778 8.696L246.592 41.105L281.575 92H249.634L229.276 59.591L221.788 67.43V92H196.633V8.696H221.905L221.788 25.544C221.788 26.792 221.671 31.043 221.437 38.297L245.188 8.696H276.778ZM335.315 8.696L365.969 92H340.112L336.017 80.183H309.224L305.129 92H279.272L310.043 8.696H335.315ZM330.401 62.282L325.955 48.008C324.941 44.654 323.888 40.442 322.796 35.372C321.548 40.364 320.378 44.615 319.286 48.125C318.116 51.947 316.595 56.666 314.723 62.282H330.401Z" fill="#2A2D32"/>
<path d="M644.017 2.696V86H618.511V24.107H594.409V86H568.786V2.696H644.017ZM697.929 0.472999C710.409 0.472999 720.471 4.529 728.115 12.641C735.759 20.675 739.581 31.244 739.581 44.348C739.581 57.374 735.72 67.904 727.998 75.938C720.354 83.972 710.253 87.989 697.695 87.989C684.903 87.989 674.607 84.011 666.807 76.055C659.007 68.021 655.107 57.413 655.107 44.231C655.107 31.049 659.007 20.48 666.807 12.524C674.607 4.49 684.981 0.472999 697.929 0.472999ZM697.578 20.948C692.43 20.948 688.374 22.976 685.41 27.032C682.524 31.088 681.081 36.704 681.081 43.88C681.081 51.29 682.524 57.062 685.41 61.196C688.296 65.252 692.391 67.28 697.695 67.28C702.921 67.28 706.899 65.252 709.629 61.196C712.359 57.062 713.724 51.056 713.724 43.178C713.724 36.236 712.281 30.815 709.395 26.915C706.587 22.937 702.648 20.948 697.578 20.948ZM825.638 2.696L799.079 41.774L828.914 86H798.026L789.953 72.428C787.769 68.762 785.741 64.784 783.869 60.494C781.295 65.72 779.072 69.815 777.2 72.779L769.244 86H739.643L769.946 41.774L742.451 2.696H772.403L778.721 13.694C780.749 17.126 782.816 21.221 784.922 25.979C787.028 21.533 788.861 17.867 790.421 14.981L797.207 2.696H825.638ZM872.63 0.472999C885.11 0.472999 895.172 4.529 902.816 12.641C910.46 20.675 914.282 31.244 914.282 44.348C914.282 57.374 910.421 67.904 902.699 75.938C895.055 83.972 884.954 87.989 872.396 87.989C859.604 87.989 849.308 84.011 841.508 76.055C833.708 68.021 829.808 57.413 829.808 44.231C829.808 31.049 833.708 20.48 841.508 12.524C849.308 4.49 859.682 0.472999 872.63 0.472999ZM872.279 20.948C867.131 20.948 863.075 22.976 860.111 27.032C857.225 31.088 855.782 36.704 855.782 43.88C855.782 51.29 857.225 57.062 860.111 61.196C862.997 65.252 867.092 67.28 872.396 67.28C877.622 67.28 881.6 65.252 884.33 61.196C887.06 57.062 888.425 51.056 888.425 43.178C888.425 36.236 886.982 30.815 884.096 26.915C881.288 22.937 877.349 20.948 872.279 20.948ZM935.379 2.696H999.261V64.706H1009.56V105.422H986.391V86H940.176V105.422H916.893V64.706H925.434C928.632 58.7 931.089 50.822 932.805 41.072C934.521 31.322 935.379 21.026 935.379 10.184V2.696ZM974.223 64.706V23.639H958.428V30.659C958.428 35.495 957.609 41.54 955.971 48.794C954.333 55.97 952.617 61.274 950.823 64.706H974.223Z" fill="#2A2D32"/>
<path d="M1289.02 8.696V92H1263.51V30.107H1239.41V92H1213.79V8.696H1289.02ZM1320.47 63.335L1293.79 8.696H1321.75L1330.76 33.032C1332.56 37.868 1333.92 42.665 1334.86 47.423C1336.03 41.573 1337.31 36.776 1338.72 33.032L1347.73 8.696H1375.69L1343.98 76.79C1341.64 81.86 1338.29 86.033 1333.92 89.309C1329.63 92.507 1325.46 94.106 1321.4 94.106C1318.91 94.106 1315.79 93.794 1312.04 93.17C1308.38 92.624 1306.07 92.039 1305.14 91.415V71.408C1305.68 71.876 1306.93 72.422 1308.88 73.046C1310.91 73.592 1312.82 73.865 1314.62 73.865C1316.49 73.865 1318.13 73.358 1319.53 72.344C1320.93 71.252 1321.64 69.731 1321.64 67.781C1321.64 66.455 1321.25 64.973 1320.47 63.335ZM1448.93 8.696V30.107H1425.53V92H1400.02V30.107H1376.74V8.696H1448.93ZM1527.9 8.696V28.937H1484.03V39.35H1523.81V58.655H1484.03V70.823H1529.07V92H1458.87V8.696H1527.9ZM1541.13 92V8.696H1566.17V70.355H1585.83V8.696H1610.98V70.355H1630.64V8.696H1655.68V92H1541.13ZM1738.36 8.696V28.937H1694.49V39.35H1734.27V58.655H1694.49V70.823H1739.53V92H1669.33V8.696H1738.36ZM1829.87 59.123C1829.17 70.199 1825.19 78.779 1817.94 84.863C1810.76 90.947 1801.87 93.989 1791.26 93.989C1778.7 93.989 1768.6 89.816 1760.96 81.47C1753.31 73.124 1749.49 62.672 1749.49 50.114C1749.49 37.712 1753.39 27.377 1761.19 19.109C1769.07 10.763 1779.25 6.59 1791.73 6.59C1801.87 6.59 1810.53 9.749 1817.7 16.067C1824.96 22.307 1828.9 30.107 1829.52 39.467H1804.72C1804.01 35.723 1802.49 32.837 1800.15 30.809C1797.81 28.781 1794.85 27.767 1791.26 27.767C1787.52 27.767 1784.36 28.976 1781.78 31.394C1779.29 33.734 1777.57 36.503 1776.64 39.701C1775.7 42.899 1775.23 46.37 1775.23 50.114C1775.23 57.056 1776.64 62.516 1779.44 66.494C1782.33 70.472 1786.27 72.461 1791.26 72.461C1798.9 72.461 1803.39 68.015 1804.72 59.123H1829.87ZM1906.65 8.696V30.107H1883.25V92H1857.74V30.107H1834.46V8.696H1906.65ZM1916.59 8.696H1958.59C1978.33 8.696 1988.19 15.638 1988.19 29.522C1988.19 36.542 1984.72 42.119 1977.78 46.253C1987.45 49.607 1992.29 56.432 1992.29 66.728C1992.29 71.408 1991.39 75.464 1989.6 78.896C1987.88 82.25 1985.46 84.863 1982.34 86.735C1979.22 88.607 1975.87 89.972 1972.28 90.83C1968.69 91.61 1964.71 92 1960.35 92H1916.59V8.696ZM1941.39 27.65V40.52H1955.78C1958.2 40.52 1960.07 39.974 1961.4 38.882C1962.8 37.712 1963.51 36.152 1963.51 34.202C1963.51 29.834 1960.54 27.65 1954.61 27.65H1941.39ZM1941.39 56.549V72.227H1957.19C1963.66 72.227 1966.9 69.653 1966.9 64.505C1966.9 59.201 1963.66 56.549 1957.19 56.549H1941.39ZM2078.42 8.696V92H2054.09V60.644C2054.09 51.908 2054.32 45.083 2054.79 40.169L2030.57 92H2003.19V8.696H2027.65V40.286C2027.65 46.604 2027.45 53.195 2027.06 60.059L2051.16 8.696H2078.42ZM2161.12 8.696V28.937H2117.24V39.35H2157.02V58.655H2117.24V70.823H2162.29V92H2092.09V8.696H2161.12Z" fill="#2A2D32"/>
</svg>
