<svg width="147" height="21" viewBox="0 0 147 21" fill="none" xmlns="http://www.w3.org/2000/svg">
<path d="M10.5 17.4125L4.01031 21L5.25 13.4015L0 8.02079L7.25516 6.91303L10.5 0L13.7448 6.91303L21 8.02079L15.75 13.4015L16.9897 21L10.5 17.4125Z" fill="#C3D72F"/>
<path d="M41.5 17.4125L35.0103 21L36.25 13.4015L31 8.02079L38.2552 6.91303L41.5 0L44.7448 6.91303L52 8.02079L46.75 13.4015L47.9897 21L41.5 17.4125Z" fill="#C3D72F"/>
<path d="M73.5 17.4125L67.0103 21L68.25 13.4015L63 8.02079L70.2552 6.91303L73.5 0L76.7448 6.91303L84 8.02079L78.75 13.4015L79.9897 21L73.5 17.4125Z" fill="#C3D72F"/>
<path d="M104.5 17.4125L98.0103 21L99.25 13.4015L94 8.02079L101.255 6.91303L104.5 0L107.745 6.91303L115 8.02079L109.75 13.4015L110.99 21L104.5 17.4125Z" fill="#C3D72F"/>
<path d="M136.5 17.4125L130.01 21L131.25 13.4015L126 8.02079L133.255 6.91303L136.5 0L139.745 6.91303L147 8.02079L141.75 13.4015L142.99 21L136.5 17.4125Z" fill="#D7D9C9"/>
</svg>
